<svg xmlns="http://www.w3.org/2000/svg" width="148" height="206.24"><g transform="translate(-1352 -308.66)"><path fill="none" stroke="#b3b5b8" stroke-linecap="round" stroke-miterlimit="10" d="M1479.35 514.3c-17-39-37.06-60.6-59.6-64.23-8.85-1.43-16.55.13-23.33 1.48-8.7 1.74-16.17 3.23-22.84-1.9-6.2-4.8-9.7-14.03-9.58-25.34.14-14.72 6.45-28.86 16.07-36.04 8.27-6.2 16.78-5.86 25.78-5.48 6.05.26 12.26.5 19.3-.97 24.89-5.18 46.25-29.6 63.51-72.56l2.8.73c-17.6 43.8-39.66 68.73-65.57 74.13-7.5 1.56-14.25 1.3-20.19 1.05-8.79-.38-16.26-.67-23.65 4.84-9.04 6.75-14.97 20.23-15.12 34.32-.11 10.5 3.13 19.32 8.68 23.59 5.5 4.24 11.93 2.95 20.08 1.32 7.09-1.43 15.14-3.05 24.63-1.51 23.63 3.81 44.43 25.95 61.8 65.78z"/><ellipse cx="11.5" cy="11" rx="11.5" ry="11" transform="translate(1352 314)"/><circle cx="11" cy="11" r="11" transform="translate(1384 314)"/><circle cx="11" cy="11" r="11" transform="translate(1415 314)"/><circle cx="11" cy="11" r="11" transform="translate(1447 314)"/><g fill="#fff" stroke="#000" stroke-dasharray="2" transform="translate(1352 343)"><circle cx="11.5" cy="11.5" r="11.5" stroke="none"/><circle cx="11.5" cy="11.5" r="11" fill="none"/></g><ellipse cx="11" cy="11.5" rx="11" ry="11.5" transform="translate(1384 343)"/><ellipse cx="11" cy="11.5" rx="11" ry="11.5" transform="translate(1415 343)"/><ellipse cx="11" cy="11.5" rx="11" ry="11.5" transform="translate(1447 343)"/><ellipse cx="11.5" cy="11" rx="11.5" ry="11" transform="translate(1352 373)"/><circle cx="11" cy="11" r="11" transform="translate(1384 373)"/><circle cx="11" cy="11" r="11" transform="translate(1415 373)"/><circle cx="11" cy="11" r="11" transform="translate(1447 373)"/><circle cx="11" cy="11" r="11" transform="translate(1384 402)"/><circle cx="11" cy="11" r="11" transform="translate(1415 402)"/><circle cx="11" cy="11" r="11" transform="translate(1447 402)"/><ellipse cx="11" cy="11.5" rx="11" ry="11.5" transform="translate(1384 431)"/><ellipse cx="11" cy="11.5" rx="11" ry="11.5" transform="translate(1415 431)"/><ellipse cx="11" cy="11.5" rx="11" ry="11.5" transform="translate(1447 431)"/><ellipse cx="11" cy="11.5" rx="11" ry="11.5" transform="translate(1478 431)"/><circle cx="11" cy="11" r="11" transform="translate(1384 461)"/><circle cx="11" cy="11" r="11" transform="translate(1415 461)"/><g fill="#fff" stroke="#000" stroke-dasharray="2" transform="translate(1447 461)"><circle cx="11" cy="11" r="11" stroke="none"/><circle cx="11" cy="11" r="10.5" fill="none"/></g><circle cx="11" cy="11" r="11" transform="translate(1478 461)"/></g></svg>