<svg xmlns="http://www.w3.org/2000/svg" width="262.271" height="227.484"><g transform="translate(-3211.965 -957.354)"><path fill="none" stroke="#96999c" stroke-width="1.5" stroke-miterlimit="10" d="M3322.2 1111.05s.1-12.26 22.7-18.56" stroke-dasharray="3"/><path fill="none" stroke="#1a1818" stroke-miterlimit="10" d="M3322.8 1071.48c-60.8-55.55-102.15-36.15-102.15-36.15"/><circle cx="6.73" cy="6.73" r="6.73" fill="#1a1818" stroke="#000" transform="translate(3259.239 1064.753)"/><circle cx="8.192" cy="8.192" r="8.192" fill="#1a1818" stroke="#000" transform="translate(3212.465 1026.187)"/><circle cx="6.73" cy="6.73" r="6.73" fill="#1a1818" stroke="#000" transform="translate(3259.239 1108.495)"/><circle cx="6.73" cy="6.73" r="6.73" fill="#1a1818" stroke="#000" transform="translate(3276.656 1006.878)"/><circle cx="6.73" cy="6.73" r="6.73" fill="#1a1818" stroke="#000" transform="translate(3348.661 993.418)"/><path fill="none" stroke="#1a1818" stroke-miterlimit="10" d="M3283.4 1013.6s48.54 27.12 39.4 57.88c-7.18 24.18 32.6-71.33 32.6-71.33M3265.97 1115.22l56.83-40.76c-46.38 20.53-56.83-2.98-56.83-2.98"/><path fill="none" stroke="#96999c" stroke-width="1.5" stroke-miterlimit="10" d="M3453.55 1128.7s-9.05 8.26-29.04-4.05" stroke-dasharray="3"/><path fill="none" stroke="#b3b5b8" stroke-width="1.2" stroke-miterlimit="10" d="M3467 1058.02s-6.88-10.78-20.2.2c-4.33 3.55-9.6 9.83-15.56 20 0 0-24.96-6.16-6.73 46.43 0 0-101.7-40.48-101.7-50.2" stroke-dasharray="3"/><path fill="none" stroke="#b3b5b8" stroke-width="1.5" stroke-miterlimit="10" d="M3435.84 1025.32s-20.18 51.82-51.9 47c-24.95-3.77 75.13 22.47 75.13 22.47M3383.93 1072.32c48.46-68.1 22.92-106.3 22.92-106.3M3332.78 1022.05l48.2 50.7c-26.72-43.14-4.87-56.72-4.87-56.72M3344.7 1174s-9.44-7.82 0-29.3" stroke-dasharray="3"/><path fill="none" stroke="#b3b5b8" stroke-width="1.2" stroke-miterlimit="10" d="M3416.55 1177.6s17.58-15-24.93-32.64c0 0 2.65-25.56-46.92-.28 0 0 13.94-67.2 23.55-68.53" stroke-dasharray="3"/><circle cx="6.73" cy="6.73" r="6.73" fill="#1a1818" stroke="#000" transform="translate(3315.484 1104.325)"/><path fill="rgba(149,149,149,0)" stroke="#b3b5b8" stroke-width="1.2" stroke-miterlimit="10" d="M3364.9 1168.95s22.75 4.1 9.5-39.96c0 0 21.47-14.14-29.5-36.5 0 0 32.36-28.8 37.52-16.34" stroke-dasharray="3"/><path fill="#fff" stroke="#000" d="M3384.85 1079a6.73 6.73 0 1 1 5.74-7.6 6.74 6.74 0 0 1-5.75 7.6z"/><circle cx="6.73" cy="6.73" r="6.73" fill="#fff" stroke="#000" transform="translate(3460.277 1051.294)"/><circle cx="6.73" cy="6.73" r="6.73" fill="#fff" stroke="#000" transform="translate(3424.51 1071.482)"/><circle cx="6.73" cy="6.73" r="6.73" fill="#fff" stroke="#000" transform="translate(3417.779 1117.92)"/><circle cx="6.73" cy="6.73" r="6.73" fill="#fff" stroke="#000" transform="translate(3452.338 1088.059)"/><circle cx="6.73" cy="6.73" r="6.73" fill="#fff" stroke="#000" transform="translate(3337.973 1167.271)"/><circle cx="6.73" cy="6.73" r="6.73" fill="#fff" stroke="#000" transform="translate(3409.813 1170.88)"/><circle cx="6.73" cy="6.73" r="6.73" fill="#fff" stroke="#000" transform="translate(3337.973 1137.954)"/><circle cx="6.73" cy="6.73" r="6.73" fill="#fff" stroke="#000" transform="translate(3358.177 1162.216)"/><circle cx="6.73" cy="6.73" r="6.73" fill="#fff" stroke="#000" transform="translate(3367.671 1122.257)"/><circle cx="6.73" cy="6.73" r="6.73" fill="#fff" stroke="#000" transform="translate(3446.818 1121.953)"/><circle cx="6.73" cy="6.73" r="6.73" fill="#fff" stroke="#000" transform="translate(3384.895 1138.23)"/><circle cx="6.73" cy="6.73" r="6.73" fill="#fff" stroke="#000" transform="translate(3338.176 1085.763)"/><path fill="#1a1818" stroke="#000" d="M3329.53 1071.48a6.73 6.73 0 1 1-6.73-6.73 6.73 6.73 0 0 1 6.73 6.73z"/><circle cx="6.73" cy="6.73" r="6.73" fill="#1a1818" stroke="#000" transform="translate(3369.379 1009.302)"/><circle cx="8.192" cy="8.192" r="8.192" fill="#1a1818" stroke="#000" transform="translate(3398.433 957.854)"/><circle cx="6.73" cy="6.73" r="6.73" fill="#1a1818" stroke="#000" transform="translate(3326.053 1015.32)"/><path fill="#fff" stroke="#000" d="M3435.83 1018.6a6.73 6.73 0 1 1-6.73 6.72 6.73 6.73 0 0 1 6.73-6.73z"/></g></svg>