<svg xmlns="http://www.w3.org/2000/svg" width="152" height="208"><g transform="translate(-417 -314)"><g fill="#fff" stroke="#707070" transform="translate(417 314)"><circle cx="6.5" cy="6.5" r="6.5" stroke="none"/><circle cx="6.5" cy="6.5" r="6" fill="none"/></g><g fill="#fff" stroke="#707070" transform="translate(452 314)"><circle cx="6.5" cy="6.5" r="6.5" stroke="none"/><circle cx="6.5" cy="6.5" r="6" fill="none"/></g><g fill="#fff" stroke="#707070" transform="translate(486 314)"><circle cx="6.5" cy="6.5" r="6.5" stroke="none"/><circle cx="6.5" cy="6.5" r="6" fill="none"/></g><g fill="#fff" stroke="#707070" transform="translate(521 314)"><circle cx="6.5" cy="6.5" r="6.5" stroke="none"/><circle cx="6.5" cy="6.5" r="6" fill="none"/></g><g fill="#fff" stroke="#707070" transform="translate(555 314)"><ellipse cx="7" cy="6.5" stroke="none" rx="7" ry="6.5"/><ellipse cx="7" cy="6.5" fill="none" rx="6.5" ry="6"/></g><g fill="#fff" stroke="#707070" transform="translate(437 349)"><circle cx="6.5" cy="6.5" r="6.5" stroke="none"/><circle cx="6.5" cy="6.5" r="6" fill="none"/></g><g fill="#fff" stroke="#707070" transform="translate(471 349)"><ellipse cx="7" cy="6.5" stroke="none" rx="7" ry="6.5"/><ellipse cx="7" cy="6.5" fill="none" rx="6.5" ry="6"/></g><g fill="#fff" stroke="#707070" transform="translate(506 349)"><circle cx="6.5" cy="6.5" r="6.5" stroke="none"/><circle cx="6.5" cy="6.5" r="6" fill="none"/></g><g fill="#fff" stroke="#707070" transform="translate(541 349)"><circle cx="6.5" cy="6.5" r="6.5" stroke="none"/><circle cx="6.5" cy="6.5" r="6" fill="none"/></g><g fill="#fff" stroke="#707070" transform="translate(452 383)"><ellipse cx="7" cy="6.5" stroke="none" rx="7" ry="6.5"/><ellipse cx="7" cy="6.5" fill="none" rx="6.5" ry="6"/></g><g fill="#fff" stroke="#707070" transform="translate(487 383)"><circle cx="6.5" cy="6.5" r="6.5" stroke="none"/><circle cx="6.5" cy="6.5" r="6" fill="none"/></g><g fill="#fff" stroke="#707070" transform="translate(521 383)"><ellipse cx="7" cy="6.5" stroke="none" rx="7" ry="6.5"/><ellipse cx="7" cy="6.5" fill="none" rx="6.5" ry="6"/></g><g fill="#fff" stroke="#707070" transform="translate(470 418)"><circle cx="6.5" cy="6.5" r="6.5" stroke="none"/><circle cx="6.5" cy="6.5" r="6" fill="none"/></g><g fill="#fff" stroke="#707070" transform="translate(505 418)"><circle cx="6.5" cy="6.5" r="6.5" stroke="none"/><circle cx="6.5" cy="6.5" r="6" fill="none"/></g><g fill="#fff" stroke="#707070" transform="translate(490 452)"><ellipse cx="6.5" cy="7" stroke="none" rx="6.5" ry="7"/><ellipse cx="6.5" cy="7" fill="none" rx="6" ry="6.5"/></g><circle cx="16.5" cy="16.5" r="16.5" transform="translate(478 489)"/></g></svg>